<svg width="26" height="24" viewBox="0 0 26 24" fill="none" xmlns="http://www.w3.org/2000/svg">
<path d="M13.0002 22C15.5065 22 17.9354 21.1979 19.8728 19.7302C21.8103 18.2625 23.1365 16.2201 23.6255 13.951C24.1145 11.6819 23.736 9.32651 22.5546 7.28613C21.3731 5.24574 19.4617 3.64664 17.1462 2.76125C14.8306 1.87587 12.2541 1.759 9.85571 2.43057C7.45727 3.10213 5.3853 4.52057 3.99282 6.44421C2.60035 8.36784 1.97352 10.6776 2.21916 12.9801C2.4648 15.2825 3.56771 17.4351 5.33995 19.071C7.37156 20.9464 10.127 22 13.0002 22V22Z" stroke="#353535" stroke-linecap="round" stroke-linejoin="round"/>
<path d="M9.75 15L16.25 9" stroke="#353535" stroke-linecap="round" stroke-linejoin="round"/>
<path d="M9.75 9L16.25 15" stroke="#353535" stroke-linecap="round" stroke-linejoin="round"/>
</svg>
