<svg width="16" height="16" viewBox="0 0 16 16" fill="none" xmlns="http://www.w3.org/2000/svg">
<path d="M5.3335 3.83301C5.06016 3.83301 4.8335 3.60634 4.8335 3.33301V1.33301C4.8335 1.05967 5.06016 0.833008 5.3335 0.833008C5.60683 0.833008 5.8335 1.05967 5.8335 1.33301V3.33301C5.8335 3.60634 5.60683 3.83301 5.3335 3.83301Z" fill="#292D32"/>
<path d="M10.6665 3.83301C10.3932 3.83301 10.1665 3.60634 10.1665 3.33301V1.33301C10.1665 1.05967 10.3932 0.833008 10.6665 0.833008C10.9398 0.833008 11.1665 1.05967 11.1665 1.33301V3.33301C11.1665 3.60634 10.9398 3.83301 10.6665 3.83301Z" fill="#292D32"/>
<path d="M12.1333 14.7667C10.68 14.7667 9.5 13.5867 9.5 12.1333C9.5 10.68 10.68 9.5 12.1333 9.5C13.5867 9.5 14.7667 10.68 14.7667 12.1333C14.7667 13.5867 13.5867 14.7667 12.1333 14.7667ZM12.1333 10.5C11.2333 10.5 10.5 11.2333 10.5 12.1333C10.5 13.0333 11.2333 13.7667 12.1333 13.7667C13.0333 13.7667 13.7667 13.0333 13.7667 12.1333C13.7667 11.2333 13.0333 10.5 12.1333 10.5Z" fill="#292D32"/>
<path d="M14.6665 15.167C14.5398 15.167 14.4131 15.1203 14.3131 15.0203L13.6465 14.3536C13.4531 14.1603 13.4531 13.8403 13.6465 13.647C13.8398 13.4536 14.1598 13.4536 14.3531 13.647L15.0198 14.3136C15.2131 14.507 15.2131 14.827 15.0198 15.0203C14.9198 15.1203 14.7931 15.167 14.6665 15.167Z" fill="#292D32"/>
<path d="M5.66667 9.66658C5.58 9.66658 5.49333 9.64659 5.41333 9.61326C5.32666 9.57992 5.25333 9.53324 5.19333 9.47324C5.16666 9.43991 5.13333 9.40658 5.11333 9.37325C5.08667 9.33325 5.06667 9.29325 5.05333 9.25325C5.03333 9.21325 5.02 9.17326 5.01334 9.13326C5.00667 9.08659 5 9.03992 5 8.99992C5 8.82658 5.07333 8.65325 5.19333 8.52659C5.25333 8.46659 5.32666 8.41991 5.41333 8.38657C5.65333 8.27991 5.95334 8.33992 6.14 8.52659C6.26 8.65325 6.33333 8.82658 6.33333 8.99992C6.33333 9.03992 6.32666 9.08659 6.32 9.13326C6.31333 9.17326 6.3 9.21325 6.28 9.25325C6.26667 9.29325 6.24667 9.33325 6.22 9.37325C6.19333 9.40658 6.16667 9.43991 6.14 9.47324C6.01334 9.59324 5.84 9.66658 5.66667 9.66658Z" fill="#292D32"/>
<path d="M8.00016 9.66679C7.82683 9.66679 7.65349 9.59345 7.52682 9.47345C7.40682 9.34679 7.3335 9.18012 7.3335 9.00012C7.3335 8.91346 7.3535 8.82679 7.38683 8.74679C7.42016 8.66679 7.46682 8.59346 7.52682 8.5268C7.77349 8.28013 8.22017 8.28013 8.4735 8.5268C8.5935 8.65346 8.66683 8.82679 8.66683 9.00012C8.66683 9.04012 8.66016 9.0868 8.65349 9.13347C8.64683 9.17347 8.6335 9.21346 8.6135 9.25346C8.60016 9.29346 8.58016 9.33346 8.5535 9.37346C8.52683 9.40679 8.50017 9.44012 8.4735 9.47345C8.34683 9.59345 8.1735 9.66679 8.00016 9.66679Z" fill="#292D32"/>
<path d="M5.66667 11.9998C5.49333 11.9998 5.32 11.9265 5.19333 11.8065C5.07333 11.6798 5 11.5065 5 11.3331C5 11.2465 5.02 11.1598 5.05333 11.0798C5.08667 10.9931 5.13333 10.9198 5.19333 10.8598C5.44 10.6131 5.89334 10.6131 6.14 10.8598C6.26 10.9865 6.33333 11.1598 6.33333 11.3331C6.33333 11.5065 6.26 11.6798 6.14 11.8065C6.01334 11.9265 5.84 11.9998 5.66667 11.9998Z" fill="#292D32"/>
<path d="M13.6668 6.55957H2.3335C2.06016 6.55957 1.8335 6.3329 1.8335 6.05957C1.8335 5.78624 2.06016 5.55957 2.3335 5.55957H13.6668C13.9402 5.55957 14.1668 5.78624 14.1668 6.05957C14.1668 6.3329 13.9402 6.55957 13.6668 6.55957Z" fill="#292D32"/>
<path d="M8.91333 15.1663H5.33333C2.9 15.1663 1.5 13.7663 1.5 11.333V5.66634C1.5 3.23301 2.9 1.83301 5.33333 1.83301H10.6667C13.1 1.83301 14.5 3.23301 14.5 5.66634V8.66634C14.5 8.93967 14.2733 9.16634 14 9.16634C13.7267 9.16634 13.5 8.93967 13.5 8.66634V5.66634C13.5 3.75967 12.5733 2.83301 10.6667 2.83301H5.33333C3.42667 2.83301 2.5 3.75967 2.5 5.66634V11.333C2.5 13.2397 3.42667 14.1663 5.33333 14.1663H8.91333C9.18666 14.1663 9.41333 14.393 9.41333 14.6663C9.41333 14.9397 9.18666 15.1663 8.91333 15.1663Z" fill="#292D32"/>
</svg>
