<svg width="24" height="24" viewBox="0 0 24 24" fill="none" xmlns="http://www.w3.org/2000/svg">
<g clip-path="url(#clip0_247:2795)">
<path d="M13.4659 12.0136L19.696 5.78336C20.1014 5.3781 20.1014 4.72287 19.696 4.31761C19.2907 3.91236 18.6355 3.91236 18.2302 4.31761L11.9999 10.5479L5.76983 4.31761C5.36439 3.91236 4.70934 3.91236 4.30408 4.31761C3.89864 4.72287 3.89864 5.3781 4.30408 5.78336L10.5342 12.0136L4.30408 18.2439C3.89864 18.6492 3.89864 19.3044 4.30408 19.7096C4.50605 19.9118 4.7716 20.0133 5.03696 20.0133C5.30232 20.0133 5.56768 19.9118 5.76983 19.7096L11.9999 13.4794L18.2302 19.7096C18.4324 19.9118 18.6977 20.0133 18.9631 20.0133C19.2284 20.0133 19.4938 19.9118 19.696 19.7096C20.1014 19.3044 20.1014 18.6492 19.696 18.2439L13.4659 12.0136Z" fill="#130F26"/>
</g>
<defs>
<clipPath id="clip0_247:2795">
<rect width="16" height="16" fill="white" transform="translate(4 4)"/>
</clipPath>
</defs>
</svg>
