<svg width="14" height="12" viewBox="0 0 14 12" fill="none" xmlns="http://www.w3.org/2000/svg">
<path fill-rule="evenodd" clip-rule="evenodd" d="M8.65166 0.961394L13.4975 9.37148C13.6042 9.62251 13.6508 9.82663 13.6642 10.0387C13.6908 10.5341 13.5175 11.0157 13.1776 11.3863C12.8376 11.7556 12.3777 11.9736 11.8778 12H2.11943C1.9128 11.9874 1.70617 11.9405 1.51287 11.8679C0.546364 11.4781 0.0797757 10.3815 0.473043 9.43093L5.35222 0.955449C5.51886 0.657519 5.77215 0.400546 6.08543 0.235396C6.99194 -0.26732 8.14508 0.0629796 8.65166 0.961394ZM7.57856 6.50384C7.57856 6.82093 7.3186 7.08583 6.99866 7.08583C6.67871 7.08583 6.41209 6.82093 6.41209 6.50384V4.635C6.41209 4.31726 6.67871 4.06028 6.99866 4.06028C7.3186 4.06028 7.57856 4.31726 7.57856 4.635V6.50384ZM6.99866 9.34502C6.67871 9.34502 6.41209 9.08012 6.41209 8.76369C6.41209 8.44595 6.67871 8.18171 6.99866 8.18171C7.3186 8.18171 7.57856 8.44 7.57856 8.75643C7.57856 9.08012 7.3186 9.34502 6.99866 9.34502Z" fill="#E54660"/>
</svg>
